<svg width="20" height="18" viewBox="0 0 20 18" fill="none" xmlns="http://www.w3.org/2000/svg">
<path d="M8.97915 0.660706C9.26503 -0.220235 10.5123 -0.220235 10.7993 0.660706L12.36 5.46353C12.4224 5.65588 12.5441 5.82353 12.7077 5.94242C12.8713 6.0613 13.0683 6.12532 13.2706 6.12529H18.319C19.2466 6.12529 19.632 7.31118 18.8823 7.85541L14.7963 10.8244C14.633 10.9432 14.5115 11.1106 14.4491 11.3027C14.3867 11.4948 14.3867 11.7017 14.449 11.8938L16.0097 16.6966C16.2956 17.5786 15.2866 18.3113 14.5369 17.766L10.4509 14.7981C10.2875 14.6795 10.0907 14.6156 9.88868 14.6156C9.68671 14.6156 9.48991 14.6795 9.32645 14.7981L5.24151 17.766C4.4908 18.3113 3.48174 17.5786 3.76868 16.6966L5.32939 11.8938C5.39161 11.7016 5.39142 11.4946 5.32885 11.3025C5.26628 11.1104 5.14453 10.943 4.98103 10.8244L0.896093 7.85541C0.146446 7.31118 0.531858 6.12529 1.45833 6.12529H6.50892C6.71096 6.1251 6.90776 6.06098 7.07114 5.9421C7.23452 5.82323 7.35609 5.65571 7.41845 5.46353L8.97915 0.660706Z" fill="#FBBC05"/>
</svg>
