<svg width="265" height="62" viewBox="0 0 265 62" fill="none" xmlns="http://www.w3.org/2000/svg">
<g clip-path="url(#clip0_202_1052)">
<path fill-rule="evenodd" clip-rule="evenodd" d="M30 61C46.524 61 60 47.524 60 31C60 14.476 46.524 1 30 1C13.476 1 0 14.476 0 31C0 47.524 13.476 61 30 61Z" fill="#205CE2"/>
<path fill-rule="evenodd" clip-rule="evenodd" d="M29.9624 12.5078C35.1259 12.5078 39.7699 14.4387 43.9233 18.315C47.9006 22.4943 49.8835 27.1759 49.8835 32.3914C49.8835 39.838 46.3738 45.6972 39.3428 49.9371C36.2487 51.4899 33.2845 52.2721 30.4184 52.2721H29.3072C24.6747 52.2721 20.7984 50.8578 17.6957 48.0437V58.3679C14.9191 57.1182 12.3705 55.4586 10.1221 53.4641V33.6036C10.1221 23.6171 14.844 16.8776 24.2966 13.391C25.5088 13.0014 27.4022 12.7099 29.9652 12.5078H29.9624ZM17.8429 31.9873V32.68C17.8429 37.2375 20.0653 40.7847 24.4957 43.3217C26.0745 44.1414 27.7659 44.5455 29.5958 44.5455H30.404C35.1634 44.5455 38.8002 42.0835 41.3112 37.1595C41.8798 35.6327 42.1569 34.1434 42.1569 32.6771V31.9844C42.1569 28.1861 40.402 24.9794 36.9068 22.3414C34.8373 20.9386 32.4879 20.2344 29.8498 20.2344C24.6862 20.2344 20.8879 22.9735 18.475 28.4401C18.0593 29.7389 17.8429 30.9281 17.8429 31.9873Z" fill="white"/>
<path fill-rule="evenodd" clip-rule="evenodd" d="M42.1568 32.6801V31.9874C42.1568 28.189 40.4019 24.9823 36.9067 22.3443C34.8372 20.9416 32.4878 20.2373 29.8497 20.2373C24.6861 20.2373 20.8878 22.9764 18.4749 28.443C18.0592 29.7418 17.8428 30.931 17.8428 31.9902V32.6829C17.8428 37.2404 20.0652 40.7876 24.4957 43.3247C26.0744 44.1444 27.7658 44.5484 29.5957 44.5484H30.4039C35.1633 44.5484 38.8001 42.0864 41.3111 37.1625C41.8797 35.6356 42.1568 34.1463 42.1568 32.6801Z" fill="#205CE2"/>
<path d="M32.6817 37.4048C31.2645 37.4048 30.1158 36.256 30.1158 34.8389C30.1158 36.256 28.967 37.4048 27.5527 37.4048C28.9699 37.4048 30.1158 38.5535 30.1158 39.9707C30.1158 38.5535 31.2645 37.4048 32.6817 37.4048Z" fill="white"/>
<path d="M25.1888 35.4362C24.1036 35.4362 23.2204 34.5559 23.2204 33.4678C23.2204 34.553 22.3401 35.4362 21.252 35.4362C22.3372 35.4362 23.2204 36.3165 23.2204 37.4047C23.2204 36.3194 24.1007 35.4362 25.1888 35.4362Z" fill="white"/>
<path d="M32.7072 27.9434C31.9914 27.9434 31.4141 27.3633 31.4141 26.6504C31.4141 27.3662 30.834 27.9434 30.1211 27.9434C30.8369 27.9434 31.4141 28.5236 31.4141 29.2365C31.4141 28.5207 31.9943 27.9434 32.7072 27.9434Z" fill="white"/>
</g>
<path d="M82.752 35.5167V31.29H90.763C92.4668 31.29 93.8757 30.9624 94.9896 30.3071C96.1036 29.619 96.9391 28.7016 97.4961 27.5548C98.0859 26.4081 98.3808 25.1302 98.3808 23.7214C98.3808 22.2797 98.0859 20.9855 97.4961 19.8388C96.9391 18.692 96.1036 17.791 94.9896 17.1357C93.8757 16.4804 92.4668 16.1527 90.763 16.1527H82.752V11.9261H89.8784C92.8272 11.9261 95.2845 12.4012 97.2504 13.3513C99.2491 14.2688 100.756 15.5793 101.772 17.2831C102.788 18.9869 103.295 21.0019 103.295 23.3282V24.1145C103.295 26.4081 102.788 28.4231 101.772 30.1596C100.756 31.8634 99.2491 33.1904 97.2504 34.1405C95.2845 35.0579 92.8272 35.5167 89.8784 35.5167H82.752ZM78.9186 48V11.9261H83.735V48H78.9186ZM109.763 48V21.7555H113.498V32.5678H113.302C113.302 28.7344 114.137 25.933 115.808 24.1637C117.512 22.3616 120.051 21.4606 123.426 21.4606H124.311V25.6872H122.64C120.019 25.6872 118.004 26.3917 116.595 27.8006C115.186 29.1767 114.481 31.1753 114.481 33.7965V48H109.763ZM131.199 48V21.7555H135.917V48H131.199ZM127.169 25.4907V21.7555H135.917V25.4907H127.169ZM132.526 17.5288C131.478 17.5288 130.691 17.2503 130.167 16.6933C129.676 16.1363 129.43 15.4319 129.43 14.58C129.43 13.7281 129.676 13.0237 130.167 12.4667C130.691 11.9097 131.478 11.6312 132.526 11.6312C133.575 11.6312 134.345 11.9097 134.836 12.4667C135.36 13.0237 135.622 13.7281 135.622 14.58C135.622 15.4319 135.36 16.1363 134.836 16.6933C134.345 17.2503 133.575 17.5288 132.526 17.5288ZM153.64 48.7864C150.2 48.7864 147.53 48.0491 145.63 46.5747C143.762 45.1003 142.795 43.0853 142.73 40.5297H147.153C147.219 41.5454 147.726 42.5119 148.677 43.4293C149.66 44.314 151.314 44.7563 153.64 44.7563C155.737 44.7563 157.343 44.3467 158.457 43.5276C159.571 42.6757 160.128 41.6437 160.128 40.4314C160.128 39.3501 159.718 38.5146 158.899 37.9249C158.08 37.3023 156.753 36.8928 154.918 36.6962L152.068 36.4013C149.578 36.1392 147.546 35.402 145.974 34.1897C144.401 32.9446 143.614 31.2081 143.614 28.9801C143.614 27.3091 144.04 25.8838 144.892 24.7043C145.744 23.492 146.924 22.5746 148.431 21.9521C149.938 21.2968 151.675 20.9691 153.64 20.9691C156.589 20.9691 158.981 21.6244 160.816 22.935C162.651 24.2456 163.601 26.1951 163.666 28.7835H159.243C159.21 27.735 158.719 26.8504 157.769 26.1296C156.851 25.376 155.475 24.9992 153.64 24.9992C151.806 24.9992 150.413 25.376 149.463 26.1296C148.513 26.8832 148.038 27.8333 148.038 28.9801C148.038 29.963 148.365 30.7494 149.021 31.3392C149.709 31.9289 150.823 32.3057 152.363 32.4695L155.213 32.7644C158.031 33.0593 160.292 33.8457 161.995 35.1235C163.699 36.3685 164.551 38.1378 164.551 40.4314C164.551 42.0696 164.076 43.5276 163.126 44.8054C162.208 46.0505 160.931 47.0334 159.292 47.7543C157.654 48.4423 155.77 48.7864 153.64 48.7864ZM181.612 48.2949C179.646 48.2949 177.942 48.0164 176.5 47.4594C175.091 46.9024 173.994 45.9522 173.208 44.6089C172.454 43.2327 172.077 41.3815 172.077 39.0552V13.7937H176.599V39.645C176.599 41.0539 176.975 42.1515 177.729 42.9379C178.515 43.6914 179.613 44.0682 181.022 44.0682H185.642V48.2949H181.612ZM167.556 25.2941V21.7555H185.642V25.2941H167.556ZM193.593 48V21.7555H198.311V48H193.593ZM189.563 25.4907V21.7555H198.311V25.4907H189.563ZM194.92 17.5288C193.871 17.5288 193.085 17.2503 192.561 16.6933C192.069 16.1363 191.823 15.4319 191.823 14.58C191.823 13.7281 192.069 13.0237 192.561 12.4667C193.085 11.9097 193.871 11.6312 194.92 11.6312C195.968 11.6312 196.738 11.9097 197.23 12.4667C197.754 13.0237 198.016 13.7281 198.016 14.58C198.016 15.4319 197.754 16.1363 197.23 16.6933C196.738 17.2503 195.968 17.5288 194.92 17.5288ZM207.433 48V21.7555H211.169V33.0102H210.579C210.579 30.4217 210.923 28.2429 211.611 26.4736C212.332 24.6715 213.413 23.3118 214.855 22.3944C216.296 21.4442 218.115 20.9691 220.31 20.9691H220.507C223.816 20.9691 226.257 22.0012 227.829 24.0654C229.435 26.1296 230.238 29.1112 230.238 33.0102V48H225.52V32.0272C225.52 29.9958 224.946 28.374 223.799 27.1617C222.653 25.9166 221.08 25.2941 219.081 25.2941C217.017 25.2941 215.346 25.933 214.068 27.2108C212.79 28.4886 212.152 30.1924 212.152 32.3221V48H207.433ZM250.027 48.8846C247.733 48.8846 245.751 48.4915 244.08 47.7051C242.409 46.9188 241.049 45.8867 240.001 44.6089C238.952 43.2983 238.166 41.8402 237.642 40.2348C237.15 38.6293 236.904 36.9911 236.904 35.3201V34.4354C236.904 32.7317 237.15 31.077 237.642 29.4716C238.166 27.8661 238.952 26.4245 240.001 25.1466C241.049 23.836 242.376 22.804 243.982 22.0504C245.62 21.264 247.537 20.8708 249.732 20.8708C252.582 20.8708 254.925 21.4934 256.76 22.7384C258.627 23.9507 260.003 25.5234 260.888 27.4565C261.806 29.3897 262.264 31.4538 262.264 33.6491V35.7624H238.969V32.2238H258.824L257.743 34.1405C257.743 32.2729 257.448 30.6675 256.858 29.3241C256.268 27.948 255.384 26.8832 254.204 26.1296C253.025 25.376 251.534 24.9992 249.732 24.9992C247.864 24.9992 246.308 25.4251 245.063 26.277C243.85 27.1289 242.933 28.292 242.311 29.7665C241.721 31.2409 241.426 32.9446 241.426 34.8777C241.426 36.7453 241.721 38.4327 242.311 39.9399C242.933 41.4143 243.883 42.5938 245.161 43.4785C246.439 44.3304 248.061 44.7563 250.027 44.7563C252.091 44.7563 253.762 44.2976 255.04 43.3802C256.35 42.4628 257.137 41.3979 257.399 40.1856H261.822C261.462 41.9877 260.741 43.544 259.659 44.8546C258.578 46.1652 257.218 47.1645 255.58 47.8526C253.942 48.5406 252.091 48.8846 250.027 48.8846Z" fill="#205CE2"/>
<defs>
<clipPath id="clip0_202_1052">
<rect width="60" height="60" fill="white" transform="translate(0 1)"/>
</clipPath>
</defs>
</svg>
