<svg width="48" height="48" viewBox="0 0 48 48" fill="none" xmlns="http://www.w3.org/2000/svg">
<path d="M26.0552 4.00242C27.5152 3.99642 28.9752 4.01242 30.4332 4.04642L30.8212 4.06042C31.2692 4.07642 31.7112 4.09642 32.2452 4.12042C34.3732 4.22042 35.8252 4.55642 37.0992 5.05042C38.4192 5.55842 39.5312 6.24642 40.6432 7.35842C41.6592 8.35842 42.4452 9.56642 42.9492 10.9004C43.4432 12.1744 43.7792 13.6284 43.8792 15.7564C43.9032 16.2884 43.9232 16.7324 43.9392 17.1804L43.9512 17.5684C43.9852 19.0284 44.0012 20.4864 43.9972 21.9444V26.0564C44.0032 27.5164 43.9872 28.9764 43.9532 30.4364L43.9412 30.8224C43.9252 31.2704 43.9052 31.7124 43.8812 32.2464C43.7812 34.3744 43.4412 35.8264 42.9492 37.1004C42.4485 38.4359 41.6614 39.6456 40.6432 40.6444C39.6432 41.6624 38.4332 42.4484 37.0992 42.9504C35.8252 43.4444 34.3732 43.7804 32.2452 43.8804C31.7112 43.9044 31.2692 43.9244 30.8212 43.9404L30.4332 43.9524C28.9732 43.9884 27.5132 44.0044 26.0532 43.9984L24.5632 44.0004H21.9432C20.4832 44.0064 19.0252 43.9904 17.5672 43.9544L17.1792 43.9424C16.7044 43.9252 16.2297 43.9052 15.7552 43.8824C13.6272 43.7824 12.1752 43.4424 10.8992 42.9504C9.56451 42.4492 8.35559 41.6622 7.3572 40.6444C6.33929 39.645 5.55165 38.4355 5.0492 37.1004C4.5552 35.8264 4.2192 34.3744 4.1192 32.2464C4.09692 31.7719 4.07692 31.2972 4.0592 30.8224L4.0492 30.4344C4.01154 28.9754 3.99487 27.5159 3.9992 26.0564V21.9444C3.99362 20.4856 4.00829 19.0268 4.0432 17.5684L4.0572 17.1804C4.0732 16.7324 4.0932 16.2884 4.1172 15.7564C4.2172 13.6264 4.5532 12.1764 5.0472 10.9004C5.54995 9.56566 6.33913 8.35731 7.3592 7.36042C8.35699 6.34192 9.56512 5.55356 10.8992 5.05042C12.1752 4.55642 13.6252 4.22042 15.7552 4.12042L17.1792 4.06042L17.5672 4.05042C19.0256 4.01374 20.4844 3.99708 21.9432 4.00042L26.0552 4.00242ZM23.9992 14.0024C21.347 14.0024 18.8035 15.056 16.9281 16.9314C15.0528 18.8067 13.9992 21.3503 13.9992 24.0024C13.9992 26.6546 15.0528 29.1981 16.9281 31.0735C18.8035 32.9489 21.347 34.0024 23.9992 34.0024C26.6514 34.0024 29.1949 32.9489 31.0703 31.0735C32.9456 29.1981 33.9992 26.6546 33.9992 24.0024C33.9992 21.3503 32.9456 18.8067 31.0703 16.9314C29.1949 15.056 26.6514 14.0024 23.9992 14.0024ZM23.9992 18.0024C25.5905 18.0024 27.1166 18.6346 28.2418 19.7598C29.3671 20.885 29.9992 22.4111 29.9992 24.0024C29.9992 25.5937 29.3671 27.1198 28.2418 28.2451C27.1166 29.3703 25.5905 30.0024 23.9992 30.0024C22.4079 30.0024 20.8818 29.3703 19.7566 28.2451C18.6313 27.1198 17.9992 25.5937 17.9992 24.0024C17.9992 22.4111 18.6313 20.885 19.7566 19.7598C20.8818 18.6346 22.4079 18.0024 23.9992 18.0024ZM34.4992 11.0024C33.854 11.0282 33.2438 11.3027 32.7964 11.7684C32.349 12.234 32.0992 12.8547 32.0992 13.5004C32.0992 14.1461 32.349 14.7668 32.7964 15.2325C33.2438 15.6981 33.854 15.9726 34.4992 15.9984C35.1622 15.9984 35.7981 15.735 36.267 15.2662C36.7358 14.7973 36.9992 14.1615 36.9992 13.4984C36.9992 12.8354 36.7358 12.1995 36.267 11.7307C35.7981 11.2618 35.1622 10.9984 34.4992 10.9984V11.0024Z" fill="#205CE2"/>
</svg>
