<svg width="234" height="54" viewBox="0 0 234 54" fill="none" xmlns="http://www.w3.org/2000/svg">
<g clip-path="url(#clip0_202_642)">
<path fill-rule="evenodd" clip-rule="evenodd" d="M25.0722 52.0722C38.8819 52.0722 50.1443 40.8097 50.1443 27C50.1443 13.1903 38.8819 1.92786 25.0722 1.92786C11.2624 1.92786 0 13.1903 0 27C0 40.8097 11.2624 52.0722 25.0722 52.0722Z" fill="#E9E9E9"/>
<path fill-rule="evenodd" clip-rule="evenodd" d="M25.0413 11.5452C29.3566 11.5452 33.2378 13.1589 36.7089 16.3985C40.0329 19.8913 41.6901 23.8039 41.6901 28.1627C41.6901 34.3861 38.7569 39.2828 32.8808 42.8263C30.295 44.124 27.8177 44.7777 25.4224 44.7777H24.4937C20.6221 44.7777 17.3826 43.5958 14.7895 41.2439V49.8723C12.469 48.8278 10.339 47.4408 8.45996 45.774V29.1758C8.45996 20.8297 12.4063 15.1972 20.3062 12.2833C21.3193 11.9577 22.9017 11.714 25.0437 11.5452H25.0413ZM14.9125 27.825V28.4039C14.9125 32.2127 16.7699 35.1773 20.4726 37.2976C21.7921 37.9826 23.2056 38.3203 24.7349 38.3203H25.4103C29.388 38.3203 32.4273 36.2628 34.5259 32.1476C35.0011 30.8715 35.2327 29.6269 35.2327 28.4015V27.8226C35.2327 24.6481 33.7661 21.9682 30.8449 19.7635C29.1154 18.5912 27.1519 18.0026 24.9472 18.0026C20.6318 18.0026 17.4574 20.2917 15.4408 24.8604C15.0934 25.9459 14.9125 26.9397 14.9125 27.825Z" fill="#205CE2"/>
<path fill-rule="evenodd" clip-rule="evenodd" d="M35.2323 28.4039V27.825C35.2323 24.6505 33.7657 21.9706 30.8445 19.7659C29.115 18.5936 27.1515 18.005 24.9468 18.005C20.6314 18.005 17.457 20.2942 15.4404 24.8628C15.093 25.9483 14.9121 26.9421 14.9121 27.8274V28.4063C14.9121 32.2151 16.7695 35.1797 20.4722 37.3C21.7916 37.9851 23.2052 38.3228 24.7345 38.3228H25.4099C29.3876 38.3228 32.4269 36.2652 34.5255 32.15C35.0007 30.874 35.2323 29.6293 35.2323 28.4039Z" fill="#E9E9E9"/>
<path d="M27.3128 32.3526C26.1284 32.3526 25.1684 31.3926 25.1684 30.2082C25.1684 31.3926 24.2083 32.3526 23.0264 32.3526C24.2107 32.3526 25.1684 33.3127 25.1684 34.497C25.1684 33.3127 26.1284 32.3526 27.3128 32.3526Z" fill="#205CE2"/>
<path d="M21.0509 30.7075C20.144 30.7075 19.4058 29.9718 19.4058 29.0624C19.4058 29.9694 18.6701 30.7075 17.7607 30.7075C18.6677 30.7075 19.4058 31.4432 19.4058 32.3526C19.4058 31.4456 20.1416 30.7075 21.0509 30.7075Z" fill="#205CE2"/>
<path d="M27.3351 24.4455C26.7369 24.4455 26.2545 23.9606 26.2545 23.3648C26.2545 23.9631 25.7696 24.4455 25.1738 24.4455C25.772 24.4455 26.2545 24.9303 26.2545 25.5261C26.2545 24.9279 26.7393 24.4455 27.3351 24.4455Z" fill="#205CE2"/>
</g>
<path d="M74.0478 31.0901V27.3961H81.0491C82.5381 27.3961 83.7694 27.1098 84.743 26.5371C85.7166 25.9357 86.4468 25.134 86.9336 24.1317C87.449 23.1295 87.7067 22.0127 87.7067 20.7814C87.7067 19.5215 87.449 18.3904 86.9336 17.3882C86.4468 16.386 85.7166 15.5985 84.743 15.0258C83.7694 14.4531 82.5381 14.1668 81.0491 14.1668H74.0478V10.4728H80.2759C82.8531 10.4728 85.0007 10.888 86.7188 11.7185C88.4655 12.5202 89.7827 13.6656 90.6704 15.1547C91.5581 16.6437 92.002 18.4047 92.002 20.4378V21.1251C92.002 23.1295 91.5581 24.8906 90.6704 26.4082C89.7827 27.8972 88.4655 29.057 86.7188 29.8874C85.0007 30.6892 82.8531 31.0901 80.2759 31.0901H74.0478ZM70.6975 42V10.4728H74.9069V42H70.6975ZM97.6546 42V19.0633H100.919V28.5129H100.747C100.747 25.1626 101.477 22.7143 102.938 21.168C104.427 19.5931 106.646 18.8056 109.595 18.8056H110.369V22.4995H108.908C106.617 22.4995 104.856 23.1152 103.625 24.3465C102.394 25.5492 101.778 27.2959 101.778 29.5867V42H97.6546ZM116.389 42V19.0633H120.512V42H116.389ZM112.866 22.3277V19.0633H120.512V22.3277H112.866ZM117.548 15.3694C116.632 15.3694 115.945 15.126 115.487 14.6392C115.057 14.1524 114.842 13.5368 114.842 12.7923C114.842 12.0478 115.057 11.4321 115.487 10.9453C115.945 10.4585 116.632 10.2151 117.548 10.2151C118.465 10.2151 119.138 10.4585 119.567 10.9453C120.025 11.4321 120.254 12.0478 120.254 12.7923C120.254 13.5368 120.025 14.1524 119.567 14.6392C119.138 15.126 118.465 15.3694 117.548 15.3694ZM136.001 42.6872C132.995 42.6872 130.661 42.043 129 40.7544C127.368 39.4658 126.523 37.7047 126.466 35.4712H130.332C130.389 36.3589 130.833 37.2036 131.663 38.0054C132.522 38.7786 133.968 39.1651 136.001 39.1651C137.834 39.1651 139.237 38.8072 140.211 38.0913C141.184 37.3468 141.671 36.4448 141.671 35.3853C141.671 34.4404 141.313 33.7102 140.597 33.1947C139.882 32.6507 138.722 32.2927 137.118 32.1209L134.627 31.8632C132.451 31.6341 130.675 30.9898 129.301 29.9303C127.926 28.8422 127.239 27.3245 127.239 25.3774C127.239 23.917 127.611 22.6714 128.356 21.6405C129.1 20.581 130.131 19.7792 131.449 19.2352C132.766 18.6625 134.283 18.3761 136.001 18.3761C138.579 18.3761 140.669 18.9488 142.273 20.0942C143.876 21.2396 144.707 22.9434 144.764 25.2056H140.898C140.869 24.2892 140.44 23.5161 139.609 22.8861C138.808 22.2275 137.605 21.8982 136.001 21.8982C134.398 21.8982 133.181 22.2275 132.351 22.8861C131.52 23.5447 131.105 24.3751 131.105 25.3774C131.105 26.2364 131.391 26.9237 131.964 27.4391C132.565 27.9545 133.539 28.2838 134.885 28.427L137.376 28.6847C139.839 28.9424 141.814 29.6297 143.303 30.7464C144.792 31.8346 145.537 33.3809 145.537 35.3853C145.537 36.8171 145.122 38.0913 144.291 39.2081C143.49 40.2962 142.373 41.1553 140.941 41.7852C139.509 42.3866 137.863 42.6872 136.001 42.6872ZM160.447 42.2577C158.729 42.2577 157.24 42.0143 155.98 41.5275C154.749 41.0407 153.79 40.2103 153.102 39.0363C152.444 37.8336 152.114 36.2157 152.114 34.1826V12.105H156.066V34.6981C156.066 35.9294 156.395 36.8886 157.054 37.5759C157.741 38.2345 158.7 38.5638 159.932 38.5638H163.969V42.2577H160.447ZM148.163 22.1559V19.0633H163.969V22.1559H148.163ZM170.918 42V19.0633H175.042V42H170.918ZM167.396 22.3277V19.0633H175.042V22.3277H167.396ZM172.078 15.3694C171.162 15.3694 170.474 15.126 170.016 14.6392C169.587 14.1524 169.372 13.5368 169.372 12.7923C169.372 12.0478 169.587 11.4321 170.016 10.9453C170.474 10.4585 171.162 10.2151 172.078 10.2151C172.994 10.2151 173.667 10.4585 174.097 10.9453C174.555 11.4321 174.784 12.0478 174.784 12.7923C174.784 13.5368 174.555 14.1524 174.097 14.6392C173.667 15.126 172.994 15.3694 172.078 15.3694ZM183.014 42V19.0633H186.279V28.8995H185.763C185.763 26.6373 186.064 24.7331 186.665 23.1868C187.295 21.6119 188.24 20.4235 189.5 19.6217C190.76 18.7913 192.349 18.3761 194.268 18.3761H194.44C197.332 18.3761 199.465 19.2781 200.84 21.0821C202.243 22.8861 202.944 25.4919 202.944 28.8995V42H198.821V28.0404C198.821 26.2651 198.32 24.8476 197.318 23.7881C196.315 22.7 194.941 22.1559 193.194 22.1559C191.39 22.1559 189.93 22.7143 188.813 23.8311C187.696 24.9478 187.138 26.4369 187.138 28.2981V42H183.014ZM220.239 42.7731C218.235 42.7731 216.502 42.4295 215.042 41.7423C213.581 41.055 212.393 40.153 211.477 39.0363C210.56 37.8909 209.873 36.6166 209.415 35.2135C208.986 33.8104 208.771 32.3786 208.771 30.9182V30.1451C208.771 28.6561 208.986 27.21 209.415 25.8069C209.873 24.4038 210.56 23.1438 211.477 22.0271C212.393 20.8817 213.553 19.9797 214.956 19.3211C216.388 18.6338 218.063 18.2902 219.981 18.2902C222.473 18.2902 224.52 18.8343 226.124 19.9224C227.756 20.9819 228.958 22.3564 229.732 24.0458C230.533 25.7353 230.934 27.5393 230.934 29.4579V31.3048H210.575V28.2122H227.928L226.983 29.8874C226.983 28.2552 226.725 26.8521 226.21 25.678C225.694 24.4754 224.921 23.5447 223.89 22.8861C222.859 22.2275 221.556 21.8982 219.981 21.8982C218.349 21.8982 216.989 22.2705 215.901 23.015C214.841 23.7595 214.04 24.776 213.496 26.0646C212.98 27.3532 212.722 28.8422 212.722 30.5317C212.722 32.1639 212.98 33.6386 213.496 34.9558C214.04 36.2444 214.87 37.2752 215.987 38.0484C217.104 38.7929 218.521 39.1651 220.239 39.1651C222.043 39.1651 223.504 38.7642 224.62 37.9625C225.766 37.1607 226.453 36.23 226.682 35.1705H230.548C230.233 36.7455 229.603 38.1056 228.658 39.251C227.713 40.3964 226.525 41.2698 225.093 41.8711C223.661 42.4725 222.043 42.7731 220.239 42.7731Z" fill="#E9E9E9"/>
<defs>
<clipPath id="clip0_202_642">
<rect width="50.1443" height="50.1443" fill="white" transform="translate(0 1.92786)"/>
</clipPath>
</defs>
</svg>
